<?xml version="1.0" standalone="no"?>
<!DOCTYPE svg PUBLIC "-//W3C//DTD SVG 20010904//EN"
 "http://www.w3.org/TR/2001/REC-SVG-20010904/DTD/svg10.dtd">
<svg version="1.0" xmlns="http://www.w3.org/2000/svg"
 width="280.000000pt" height="280.000000pt" viewBox="0 0 280.000000 280.000000"
 preserveAspectRatio="xMidYMid meet">
<metadata>
Created by potrace 1.11, written by Peter Selinger 2001-2013
</metadata>
<g transform="translate(0.000000,280.000000) scale(0.100000,-0.100000)"
fill="#000000" stroke="none">
<path d="M100 1400 l0 -1400 478 0 478 0 178 185 179 185 41 -43 c22 -24 101
-108 175 -185 l134 -142 469 0 468 0 -2 1348 -3 1347 -630 0 -630 0 -2 -474
c-1 -260 -3 -474 -5 -476 -2 -1 -102 77 -223 174 -121 97 -331 264 -465 371
-135 107 -252 200 -260 207 -8 7 -67 53 -130 104 -63 50 -145 116 -182 146
l-68 54 0 -1401z"/>
</g>
</svg>
